<?xml version="1.0" encoding="UTF-8" standalone="no"?><!DOCTYPE svg PUBLIC "-//W3C//DTD SVG 1.1//EN" "http://www.w3.org/Graphics/SVG/1.1/DTD/svg11.dtd"><svg xmlns:dc="http://purl.org/dc/elements/1.1/" xmlns:cc="http://creativecommons.org/ns#" xmlns:rdf="http://www.w3.org/1999/02/22-rdf-syntax-ns#" xmlns:svg="http://www.w3.org/2000/svg" xmlns="http://www.w3.org/2000/svg" xmlns:sodipodi="http://sodipodi.sourceforge.net/DTD/sodipodi-0.dtd" xmlns:inkscape="http://www.inkscape.org/namespaces/inkscape" width="200" height="200" id="svg2" version="1.1" inkscape:version="0.48.5 r10040" sodipodi:docname="github.svg"><defs id="defs4"><clipPath id="clipPath3001" clipPathUnits="userSpaceOnUse"><path id="path3003" d="m0 551.986 530.973 0L530.973 0 0 0 0 551.986z" inkscape:connector-curvature="0"/></clipPath></defs><sodipodi:namedview id="base" pagecolor="#ffffff" bordercolor="#666666" borderopacity="1.0" inkscape:pageopacity="0" inkscape:pageshadow="2" inkscape:zoom="2.3281406" inkscape:cx="243.1966" inkscape:cy="89.60716" inkscape:document-units="px" inkscape:current-layer="layer1" showgrid="false" inkscape:window-width="1536" inkscape:window-height="803" inkscape:window-x="-8" inkscape:window-y="-8" inkscape:window-maximized="1"/><metadata id="metadata7"><rdf:RDF><cc:Work rdf:about=""><dc:format>image/svg+xml</dc:format><dc:type rdf:resource="http://purl.org/dc/dcmitype/StillImage"/></cc:Work></rdf:RDF></metadata><g inkscape:label="Layer 1" inkscape:groupmode="layer" id="layer1" transform="translate(0,-852.36218)"><g transform="matrix(1.6559581,0,0,-1.6978866,-476.54382,1535.371)" inkscape:label="GitHub-Mark" id="g2993"><g id="g2997" transform="translate(-2.2337781,-91.546851)"><g clip-path="url(#clipPath3001)" id="g2999"><g transform="translate(152.6083,444.5454)" id="g3005"/><g transform="translate(350.6088,493.5547)" id="g3009"><path id="path3011" d="m0 0c-33.347 0-60.388-27.035-60.388-60.388 0-26.68 17.303-49.316 41.297-57.301 3.018-0.559 4.126 1.31 4.126 2.905 0 1.439-0.056 6.197-0.082 11.243-16.8-3.653-20.345 7.125-20.345 7.125-2.747 6.979-6.705 8.836-6.705 8.836-5.479 3.748 0.413 3.671 0.413 3.671 6.064-0.426 9.257-6.224 9.257-6.224 5.386-9.231 14.127-6.562 17.573-5.019 0.543 3.902 2.107 6.567 3.834 8.075-13.413 1.526-27.513 6.705-27.513 29.844 0 6.592 2.359 11.98 6.222 16.209-0.627 1.521-2.694 7.663 0.586 15.981 0 0 5.071 1.622 16.61-6.191 4.817 1.338 9.983 2.009 15.115 2.033 5.132-0.024 10.302-0.695 15.128-2.033 11.526 7.813 16.59 6.191 16.59 6.191 3.287-8.318 1.22-14.46 0.593-15.981 3.872-4.229 6.214-9.617 6.214-16.209 0-23.195-14.127-28.301-27.574-29.796 2.166-1.874 4.096-5.549 4.096-11.183 0-8.08-0.069-14.583-0.069-16.572 0-1.608 1.086-3.49 4.147-2.898 23.982 7.994 41.263 30.622 41.263 57.294C60.388-27.035 33.351 0 0 0" inkscape:connector-curvature="0" style="fill-opacity:1;fill-rule:evenodd;fill:#1b1817"/></g><g transform="translate(313.0932,406.8515)" id="g3013"><path id="path3015" d="m0 0c-0.133-0.301-0.605-0.391-1.035-0.185-0.439 0.198-0.684 0.607-0.542 0.908 0.13 0.308 0.602 0.394 1.04 0.188C-0.099 0.714 0.151 0.301 0 0" inkscape:connector-curvature="0" style="fill-opacity:1;fill-rule:nonzero;fill:#1b1817"/></g><g transform="translate(315.5395,404.123)" id="g3017"><path id="path3019" d="M0 0C-0.288-0.267-0.852-0.143-1.233 0.279-1.629 0.7-1.702 1.264-1.41 1.534-1.113 1.801-0.567 1.676-0.172 1.255 0.224 0.829 0.301 0.271 0 0" inkscape:connector-curvature="0" style="fill-opacity:1;fill-rule:nonzero;fill:#1b1817"/></g><g transform="translate(317.9204,400.6455)" id="g3021"><path id="path3023" d="M0 0C-0.37-0.258-0.976-0.017-1.35 0.52-1.72 1.058-1.72 1.702-1.341 1.96-0.967 2.218-0.37 1.985 0.009 1.453 0.378 0.907 0.378 0.263 0 0" inkscape:connector-curvature="0" style="fill-opacity:1;fill-rule:nonzero;fill:#1b1817"/></g><g transform="translate(321.1821,397.2851)" id="g3025"><path id="path3027" d="M0 0C-0.331-0.365-1.036-0.267-1.552 0.232-2.08 0.718-2.227 1.409-1.896 1.774-1.56 2.14-0.851 2.037-0.331 1.543 0.193 1.057 0.352 0.361 0 0" inkscape:connector-curvature="0" style="fill-opacity:1;fill-rule:nonzero;fill:#1b1817"/></g><g transform="translate(325.6821,395.334)" id="g3029"><path id="path3031" d="m0 0c-0.147-0.473-0.825-0.687-1.509-0.486-0.683 0.207-1.13 0.76-0.992 1.238 0.142 0.476 0.824 0.7 1.513 0.485C-0.306 1.031 0.142 0.481 0 0" inkscape:connector-curvature="0" style="fill-opacity:1;fill-rule:nonzero;fill:#1b1817"/></g><g transform="translate(330.6245,394.9726)" id="g3033"><path id="path3035" d="m0 0c0.017-0.498-0.563-0.911-1.281-0.92-0.722-0.016-1.307 0.387-1.315 0.877 0 0.503 0.568 0.911 1.289 0.924C-0.589 0.895 0 0.494 0 0" inkscape:connector-curvature="0" style="fill-opacity:1;fill-rule:nonzero;fill:#1b1817"/></g><g transform="translate(335.2231,395.7549)" id="g3037"><path id="path3039" d="m0 0c0.086-0.485-0.413-0.984-1.126-1.117-0.701-0.129-1.35 0.172-1.439 0.653-0.087 0.498 0.42 0.997 1.121 1.126C-0.73 0.786-0.091 0.494 0 0" inkscape:connector-curvature="0" style="fill-opacity:1;fill-rule:nonzero;fill:#1b1817"/></g><g transform="translate(224.8979,499.4882)" id="g3041"/><g transform="translate(224.8979,496.9882)" id="g3045"/><g transform="translate(224.8979,361.9951)" id="g3049"/><g transform="translate(133.2758,347.4795)" id="g3053"/><g transform="translate(137.5537,346.2851)" id="g3057"/><g transform="translate(150.1655,343.0761)" id="g3061"/><g transform="translate(101.854,330.9863)" id="g3069"/><g transform="translate(106.9238,327.7754)" id="g3073"/><g transform="translate(113.8417,331.8857)" id="g3077"/><g transform="translate(122.7333,325.6816)" id="g3081"/><g transform="translate(128.8295,330.1035)" id="g3085"/><g transform="translate(138.3159,329.6836)" id="g3089"/><g transform="translate(140.2172,331.8857)" id="g3093"/><g transform="translate(154.0771,325.6816)" id="g3099"/><g transform="translate(158.1572,332.3769)" id="g3103"/><g transform="translate(165.7832,328.7949)" id="g3107"/><g transform="translate(176.3315,329.6836)" id="g3111"/><g transform="translate(178.2329,331.8857)" id="g3115"/><g transform="translate(335.6333,348.6504)" id="g3119"/><g transform="translate(344.3334,343.0761)" id="g3123"/><g transform="translate(348.3647,346.2871)" id="g3127"/><g transform="translate(354.4545,341.1211)" id="g3131"/><g transform="translate(362.1342,344.4629)" id="g3135"/><g transform="translate(365.3569,346.2871)" id="g3139"/><g transform="translate(318.2573,330.9863)" id="g3143"/><g transform="translate(323.3276,327.7773)" id="g3147"/><g transform="translate(330.2456,331.8867)" id="g3151"/><g transform="translate(339.1362,325.6826)" id="g3155"/><g transform="translate(343.2172,332.3789)" id="g3159"/><g transform="translate(350.8432,328.7968)" id="g3163"/><g transform="translate(361.3911,329.6845)" id="g3167"/><g transform="translate(363.2924,331.8867)" id="g3171"/><g transform="translate(379.1928,329.1269)" id="g3175"/><g transform="translate(152.6083,168.5454)" id="g3179"/><g transform="translate(350.6088,217.5547)" id="g3183"/><g transform="translate(313.0932,130.8515)" id="g3187"/><g transform="translate(315.5395,128.123)" id="g3191"/><g transform="translate(317.9204,124.6455)" id="g3195"/><g transform="translate(321.1821,121.2851)" id="g3199"/><g transform="translate(325.6821,119.334)" id="g3203"/><g transform="translate(330.6245,118.9726)" id="g3207"/><g transform="translate(335.2231,119.7549)" id="g3211"/><g transform="translate(224.8979,223.4882)" id="g3215"/><g transform="translate(224.8979,220.9882)" id="g3219"/><g transform="translate(224.8979,85.9951)" id="g3223"/><g transform="translate(133.2758,71.4795)" id="g3227"/><g transform="translate(137.5537,70.2851)" id="g3231"/><g transform="translate(150.1655,67.0761)" id="g3235"/><g transform="translate(101.854,54.9863)" id="g3243"/><g transform="translate(106.9238,51.7754)" id="g3247"/><g transform="translate(113.8417,55.8857)" id="g3251"/><g transform="translate(122.7333,49.6816)" id="g3255"/><g transform="translate(128.8295,54.1035)" id="g3259"/><g transform="translate(138.3159,53.6836)" id="g3263"/><g transform="translate(140.2172,55.8857)" id="g3267"/><g transform="translate(154.0771,49.6816)" id="g3273"/><g transform="translate(158.1572,56.3769)" id="g3277"/><g transform="translate(165.7832,52.7949)" id="g3281"/><g transform="translate(176.3315,53.6836)" id="g3285"/><g transform="translate(178.2329,55.8857)" id="g3289"/><g transform="translate(335.6333,72.6504)" id="g3293"/><g transform="translate(344.3334,67.0761)" id="g3297"/><g transform="translate(348.3647,70.2871)" id="g3301"/><g transform="translate(354.4545,65.1211)" id="g3305"/><g transform="translate(362.1342,68.4629)" id="g3309"/><g transform="translate(365.3569,70.2871)" id="g3313"/><g transform="translate(318.2573,54.9863)" id="g3317"/><g transform="translate(323.3276,51.7773)" id="g3321"/><g transform="translate(330.2456,55.8867)" id="g3325"/><g transform="translate(339.1362,49.6826)" id="g3329"/><g transform="translate(343.2172,56.3789)" id="g3333"/><g transform="translate(350.8432,52.7968)" id="g3337"/><g transform="translate(361.3911,53.6845)" id="g3341"/><g transform="translate(363.2924,55.8867)" id="g3345"/><g transform="translate(379.1928,53.1269)" id="g3349"/></g></g></g></g></svg>